<?xml version="1.0" encoding="UTF-8"?>
<svg width="16px" height="16px" viewBox="0 0 16 16" version="1.1" xmlns="http://www.w3.org/2000/svg" xmlns:xlink="http://www.w3.org/1999/xlink">
    <title>编组 26</title>
    <g id="页面-1" stroke="none" stroke-width="1" fill="none" fill-rule="evenodd">
        <g id="企业库V2-企业地图-选择器下拉" transform="translate(-916.000000, -795.000000)">
            <g id="编组-26" transform="translate(916.000000, 795.000000)">
                <g id="编组-24">
                    <rect id="矩形" x="0" y="0" width="16" height="16"></rect>
                    <g id="编组-23" transform="translate(5.000000, 12.000000)"></g>
                </g>
                <ellipse id="椭圆形" fill="#D2E0F8" cx="7.96086957" cy="13.7826087" rx="2.5" ry="1.09565217"></ellipse>
                <g id="编组-8备份-2" transform="translate(2.000000, 1.000000)" fill="#1B63D9" fill-rule="nonzero">
                    <path d="M9.82819427,1.57714755 C11.9623825,3.68039559 11.9623825,7.08990376 9.82819427,9.19315182 L5.96495441,13 L2.10093394,9.19199787 L2.10093394,9.19238252 C-0.0336446476,7.08951912 -0.0336446476,3.68001095 2.10093394,1.57714755 C4.23473191,-0.52571585 7.6943963,-0.52571585 9.82819427,1.57714755 Z M5.96441774,3.64294516 C4.95844621,3.64294516 4.14294516,4.45844621 4.14294516,5.46441774 C4.14294516,6.47038926 4.95844621,7.28589032 5.96441774,7.28589032 C6.97038926,7.28589032 7.78589032,6.47038926 7.78589032,5.46441774 C7.78589032,4.45844621 6.97038926,3.64294516 5.96441774,3.64294516 Z" id="形状结合"></path>
                </g>
            </g>
        </g>
    </g>
</svg>