<?xml version="1.0" encoding="UTF-8"?>
<svg width="18px" height="34px" viewBox="0 0 18 34" version="1.1" xmlns="http://www.w3.org/2000/svg" xmlns:xlink="http://www.w3.org/1999/xlink">
    <title>编组 5备份 4</title>
    <g id="页面-1" stroke="none" stroke-width="1" fill="none" fill-rule="evenodd">
        <g id="企业库V2-企业地图-选择器下拉" transform="translate(-758.000000, -630.000000)">
            <g id="编组-5备份-4" transform="translate(758.000000, 630.000000)">
                <path d="M0,0 C9.9411255,0 18,7.61115925 18,17 C18,26.3888407 9.9411255,34 0,34 L0,34 Z" id="形状结合" fill="#727383"></path>
                <path d="M10,13.075414 L10,12.1010442 C10,12.0165904 9.90294118,11.9699518 9.83739496,12.0216325 L4.15504202,16.4598678 C3.94831933,16.6212123 3.94831933,16.9325568 4.15504202,17.0939014 L9.83739496,21.5321367 C9.90420168,21.5838173 10,21.5371787 10,21.4527249 L10,20.4783552 C10,20.4165904 9.9710084,20.3573468 9.92310924,20.3195316 L5.38529412,16.7775148 L9.92310924,13.2342375 C9.9710084,13.1964224 10,13.1371787 10,13.075414 Z" id="路径" fill="#FFFFFF"></path>
            </g>
        </g>
    </g>
</svg>