<?xml version="1.0" encoding="UTF-8"?>
<svg width="20px" height="20px" viewBox="0 0 20 20" version="1.1" xmlns="http://www.w3.org/2000/svg" xmlns:xlink="http://www.w3.org/1999/xlink">
    <title>搜索备份 3</title>
    <g id="页面-1" stroke="none" stroke-width="1" fill="none" fill-rule="evenodd">
        <g id="企业库V2-企业地图-选择器下拉" transform="translate(-1040.000000, -793.000000)">
            <g id="搜索备份-3" transform="translate(1040.000000, 793.000000)">
                <rect id="透明底框" fill="#0043FF" opacity="0" x="0" y="0" width="20" height="20"></rect>
                <path d="M9.01886352,2 C12.8952748,2 16.037727,5.14233407 16.037727,9.01859959 C16.037727,10.6310184 15.4939794,12.1164429 14.5798401,13.3015238 L18,16.6594681 L16.6841628,18 L13.2443382,14.6233324 C12.0688448,15.5108798 10.6053207,16.0371992 9.01886352,16.0371992 C5.14245224,16.0371992 2,12.8948651 2,9.01859959 C2,5.14233407 5.14245224,2 9.01886352,2 Z M9.01886352,3.51859959 C5.9812974,3.51859959 3.51886352,5.98103346 3.51886352,9.01859959 C3.51886352,12.0561657 5.9812974,14.5185996 9.01886352,14.5185996 C12.0564296,14.5185996 14.5188635,12.0561657 14.5188635,9.01859959 C14.5188635,5.98103346 12.0564296,3.51859959 9.01886352,3.51859959 Z M9.6,6 L9.599,8.4 L12,8.4 L12,9.6 L9.599,9.599 L9.6,12 L8.4,12 L8.4,9.599 L6,9.6 L6,8.4 L8.4,8.4 L8.4,6 L9.6,6 Z" id="形状结合" fill="#1B63D9" fill-rule="nonzero"></path>
            </g>
        </g>
    </g>
</svg>