<?xml version="1.0" encoding="UTF-8"?>
<svg width="20px" height="24px" viewBox="0 0 20 24" version="1.1" xmlns="http://www.w3.org/2000/svg" xmlns:xlink="http://www.w3.org/1999/xlink">
    <title>编组 8备份 8</title>
    <defs>
        <path d="M2.63676867,15.1400289 C-0.87892289,11.6765729 -0.87892289,6.06104806 2.63676867,2.59759203 C6.15117453,-0.865864009 11.8493076,-0.865864009 15.3637135,2.59759203 C18.8787622,6.06168158 18.8787622,11.6772064 15.3637135,15.141296 L9.00088391,21.4112474 L2.63676867,15.1393954 L2.63676867,15.1400289 Z" id="path-1"></path>
    </defs>
    <g id="页面-1" stroke="none" stroke-width="1" fill="none" fill-rule="evenodd">
        <g id="企业库V2-企业地图-选择器下拉" transform="translate(-749.000000, -845.000000)">
            <g id="编组-8备份-8" transform="translate(750.000000, 846.000000)">
                <g id="形状结合" fill-rule="nonzero">
                    <use fill="#ED2D00" xlink:href="#path-1"></use>
                    <path stroke="#DCE6F6" stroke-width="1" d="M9.00024107,-0.5 C11.4305551,-0.5 13.8605586,0.414229162 15.714676,2.24146661 C17.5719953,4.07185956 18.5,6.47082038 18.5,8.869444 C18.5,11.2680676 17.5719953,13.6670284 15.714658,15.4974391 L15.714658,15.4974391 L9.00086618,22.1132298 L2.28590386,15.4956171 C0.428198995,13.6658484 -0.5,11.2671634 -0.5,8.86873129 C-0.5,6.4703225 0.428182979,4.07148954 2.28580615,2.24146661 C4.13992352,0.414229162 6.56992703,-0.5 9.00024107,-0.5 Z" fill-opacity="0.02" fill="#000000" fill-rule="evenodd"></path>
                </g>
                <path d="M9.59755546,4.18319237 C9.79085512,4.18319237 9.95213037,4.32030517 9.98942888,4.50257842 L9.99755546,4.58319237 L9.99755546,12.5923792 C9.99755546,12.7856789 9.86044266,12.9469541 9.67816941,12.9842526 L9.59755546,12.9923792 L5.39755546,12.9923792 C5.2042558,12.9923792 5.04298054,12.8552664 5.00568204,12.6729931 L4.99755546,12.5923792 L4.99755546,6.26319237 C4.99755546,6.12689084 5.0667085,6.0020326 5.1776434,5.92904579 L5.24899919,5.8918017 L9.44899919,4.2118017 C9.4962473,4.19290245 9.54666769,4.18319237 9.59755546,4.18319237 Z M11.3975555,6.48551659 C11.4957981,6.48551659 11.590605,6.52167115 11.6639011,6.5870874 L12.8639011,7.65807784 C12.9489348,7.73396969 12.9975555,7.84253206 12.9975555,7.95650703 L12.9975555,12.5923792 C12.9975555,12.8132931 12.8184694,12.9923792 12.5975555,12.9923792 L11.3975555,12.9923792 C11.1766416,12.9923792 10.9975555,12.8132931 10.9975555,12.5923792 L10.9975555,6.88551659 C10.9975555,6.66460269 11.1766416,6.48551659 11.3975555,6.48551659 Z M8.97189711,8.33440096 C8.88457322,8.0724293 8.60141324,7.9308493 8.33944158,8.01817319 L8.33944158,8.01817319 L6.33944158,9.01817319 L6.25672549,9.05423664 C6.04883367,9.16815993 5.94559258,9.41776503 6.02321381,9.65062872 C6.1105377,9.91260038 6.39369768,10.0541804 6.65566934,9.96685649 L6.65566934,9.96685649 L8.65566934,8.96685649 L8.73838543,8.93079304 C8.94627725,8.81686974 9.04951834,8.56726465 8.97189711,8.33440096 Z M8.97189711,6.33426531 C8.88457322,6.07229365 8.60141324,5.93071365 8.33944158,6.01803754 L8.33944158,6.01803754 L6.33944158,7.01803754 L6.25672549,7.05410099 C6.04883367,7.16802428 5.94559258,7.41762937 6.02321381,7.65049307 C6.1105377,7.91246473 6.39369768,8.05404472 6.65566934,7.96672084 L6.65566934,7.96672084 L8.65566934,6.96672084 L8.73838543,6.93065739 C8.94627725,6.81673409 9.04951834,6.567129 8.97189711,6.33426531 Z" id="形状结合" fill="#FFFFFF"></path>
            </g>
        </g>
    </g>
</svg>