<?xml version="1.0" encoding="UTF-8"?>
<svg width="28px" height="25px" viewBox="0 0 28 25" version="1.1" xmlns="http://www.w3.org/2000/svg" xmlns:xlink="http://www.w3.org/1999/xlink">
    <title>编组 22</title>
    <defs>
        <path d="M17,0 C21.9705627,8.63279275e-16 26,4.02943725 26,9 C26,13.9705627 21.9705627,18 17,18 L15.8422127,17.9998931 C14.8206156,18.9743705 13.8732114,20.1494389 13,21.5250981 C12.1607416,20.1243391 11.2488745,18.9489844 10.2643988,17.999034 L9,18 C4.02943725,18 2.38507522e-15,13.9705627 0,9 C1.16763846e-15,4.02943725 4.02943725,2.6894344e-15 9,0 L17,0 Z" id="path-1"></path>
    </defs>
    <g id="页面-1" stroke="none" stroke-width="1" fill="none" fill-rule="evenodd">
        <g id="企业库V2-企业地图-选择器下拉" transform="translate(-703.000000, -846.000000)" fill-rule="nonzero">
            <g id="形状结合" transform="translate(704.000000, 847.000000)">
                <use fill="#ED2D00" xlink:href="#path-1"></use>
                <path stroke="#DCE6F6" stroke-width="1" d="M17,-0.5 C19.6233526,-0.5 21.9983526,0.563323719 23.7175144,2.28248558 C25.4366763,4.00164744 26.5,6.37664744 26.5,9 C26.5,11.6233526 25.4366763,13.9983526 23.7175144,15.7175144 C21.9983526,17.4366763 19.6233526,18.5 16.9999538,18.5 L16.9999538,18.5 L16.0443527,18.4999117 C15.1046303,19.420604 14.2310343,20.5187154 13.4221374,21.7930534 C13.2704809,22.0319733 13.1253979,22.2703148 12.9868054,22.5079906 C12.8554415,22.2673469 12.7168649,22.0253778 12.5710919,21.7820765 C11.7974141,20.4907743 10.9612106,19.3959151 10.0604039,18.49919 L10.0604039,18.49919 L9,18.5 C6.37664744,18.5 4.00164744,17.4366763 2.28248558,15.7175144 C0.563323719,13.9983526 -0.5,11.6233526 -0.5,9 C-0.5,6.37664744 0.563323719,4.00164744 2.28248558,2.28248558 C4.00164744,0.563323719 6.37664744,-0.5 9,-0.5 L9,-0.5 Z" fill-opacity="0.02" fill="#000000" fill-rule="evenodd"></path>
            </g>
        </g>
    </g>
</svg>